<?xml version="1.0" encoding="UTF-8"?>
<svg width="14px" height="14px" viewBox="0 0 14 14" version="1.1" xmlns="http://www.w3.org/2000/svg" xmlns:xlink="http://www.w3.org/1999/xlink">
    <title>编组 14</title>
    <g id="页面-1" stroke="none" stroke-width="1" fill="none" fill-rule="evenodd">
        <g id="编组-14" fill="#4F185A" fill-rule="nonzero">
            <path d="M1,3.99995626 C1.2652165,3.99995626 1.51957041,4.10531195 1.70710679,4.29284628 C1.89464317,4.48038061 2,4.73473174 2,4.99994533 L2,8.99990157 C2,9.55218029 1.55228476,9.99989065 1,9.99989065 C0.447715254,9.99989065 0,9.55218029 0,8.99990157 L0,4.99994533 C0,4.44766662 0.447715254,3.99995626 1,3.99995626 L1,3.99995626 Z" id="路径"></path>
            <path d="M5,0 C5.55228476,0 6,0.447710367 6,0.999989072 L6,12.9998578 C6.0000547,13.357156 5.80946774,13.6873365 5.5000442,13.8660014 C5.19062066,14.0446662 4.80937935,14.0446662 4.49995581,13.8660014 C4.19053227,13.6873365 3.99994531,13.357156 4,12.9998578 L4,0.999989072 C4,0.73477548 4.10535685,0.480424347 4.29289323,0.292890018 C4.48042961,0.105355689 4.73478352,0 5,0 L5,0 Z" id="路径"></path>
            <path d="M9,2.49997267 C9.55228475,2.49997267 10,2.94768302 10,3.49996174 L10,10.4998852 C10.0000547,10.8571833 9.80946775,11.1873638 9.50004421,11.3660287 C9.19062067,11.5446935 8.80937935,11.5446935 8.49995581,11.3660287 C8.19053227,11.1873638 7.99994531,10.8571833 8,10.4998852 L8,3.49996174 C8,2.94768303 8.44771525,2.49997267 9,2.49997267 Z" id="路径"></path>
            <path d="M13,3.99995626 C13.2652165,3.99995626 13.5195704,4.10531195 13.7071068,4.29284628 C13.8946432,4.48038061 14,4.73473174 14,4.99994533 L14,9.49989612 C14,10.0521748 13.5522848,10.4998852 13,10.4998852 C12.4477153,10.4998852 12,10.0521748 12,9.49989612 L12,4.99994533 C12,4.44766662 12.4477153,3.99995626 13,3.99995626 L13,3.99995626 Z" id="路径"></path>
        </g>
    </g>
</svg>