<?xml version="1.0" encoding="UTF-8"?>
<svg width="14px" height="14px" viewBox="0 0 14 14" version="1.1" xmlns="http://www.w3.org/2000/svg" xmlns:xlink="http://www.w3.org/1999/xlink">
    <title>编组 14</title>
    <g id="页面-1" stroke="none" stroke-width="1" fill="none" fill-rule="evenodd">
        <g id="编组-14">
            <rect id="矩形" x="0" y="0" width="14" height="14"></rect>
            <path d="M3.768125,5.25030935 L2,7 L3.768125,8.74969065 C4.74407985,7.78327772 4.74407985,6.21672228 3.768125,5.25030935 Z" id="路径" fill="#000000" fill-rule="nonzero"></path>
            <path d="M5.535625,10.5 L6.419375,11.3748453 C8.860625,8.95881209 8.860625,5.04118791 6.419375,2.62515468 L5.535625,3.5 C6.47336262,4.42824113 7.00018219,5.68723498 7.00018219,7 C7.00018219,8.31276502 6.47336262,9.57175887 5.535625,10.5 L5.535625,10.5 Z" id="路径" fill="#000000" fill-rule="nonzero"></path>
            <path d="M8.1875,0.874845324 C11.604375,4.25791055 11.604375,9.74208945 8.1875,13.1251547 L9.07125,14 C12.97625,10.1337281 12.97625,3.86565317 9.07125,0 L8.1875,0.875464027 L8.1875,0.874845324 Z" id="路径" fill="#000000" fill-rule="nonzero"></path>
        </g>
    </g>
</svg>