<?xml version="1.0" encoding="UTF-8"?>
<svg width="14px" height="15px" viewBox="0 0 14 15" version="1.1" xmlns="http://www.w3.org/2000/svg" xmlns:xlink="http://www.w3.org/1999/xlink">
    <title>语音 (2)</title>
    <g id="页面-1" stroke="none" stroke-width="1" fill="none" fill-rule="evenodd">
        <g id="04录音中显示文字" transform="translate(-824.000000, -467.000000)">
            <g id="编组-6" transform="translate(724.000000, 112.000000)">
                <g id="编组-6备份" transform="translate(76.000000, 339.000000)">
                    <g id="编组" transform="translate(16.000000, 12.000000)">
                        <g id="语音-(2)" transform="translate(8.000000, 4.960000)">
                            <rect id="矩形" x="0" y="0" width="14" height="14"></rect>
                            <path d="M9.07125,0 C12.97625,3.86565317 12.97625,10.1337281 9.07125,14 L9.07125,14 L8.1875,13.1251547 C11.604375,9.74208945 11.604375,4.25791055 8.1875,0.874845324 L8.187,0.875 Z M6.419375,2.62515468 C8.860625,5.04118791 8.860625,8.95881209 6.419375,11.3748453 L6.419375,11.3748453 L5.535625,10.5 C6.47336262,9.57175887 7.00018219,8.31276502 7.00018219,7 C7.00018219,5.68723498 6.47336262,4.42824113 5.535625,3.5 L5.535625,3.5 Z M3.768125,5.25030935 C4.74407985,6.21672228 4.74407985,7.78327772 3.768125,8.74969065 L3.768125,8.74969065 L2,7 Z" id="形状结合" fill="#000000" fill-rule="nonzero"></path>
                        </g>
                    </g>
                </g>
            </g>
        </g>
    </g>
</svg>